<?xml version="1.0" encoding="UTF-8" standalone="no"?>
<!-- Created with Inkscape (http://www.inkscape.org/) -->
<svg
   xmlns:game="http://crosby/gosu/truck"
   xmlns:dc="http://purl.org/dc/elements/1.1/"
   xmlns:cc="http://creativecommons.org/ns#"
   xmlns:rdf="http://www.w3.org/1999/02/22-rdf-syntax-ns#"
   xmlns:svg="http://www.w3.org/2000/svg"
   xmlns="http://www.w3.org/2000/svg"
   xmlns:xlink="http://www.w3.org/1999/xlink"
   xmlns:sodipodi="http://sodipodi.sourceforge.net/DTD/sodipodi-0.dtd"
   xmlns:inkscape="http://www.inkscape.org/namespaces/inkscape"
   width="10000"
   height="768"
   id="svg2396"
   sodipodi:version="0.32"
   inkscape:version="0.46"
   version="1.0"
   sodipodi:docname="terrain_proto.svg"
   inkscape:output_extension="org.inkscape.output.svg.inkscape">
  <defs
     id="defs2398">
    <inkscape:perspective
       sodipodi:type="inkscape:persp3d"
       inkscape:vp_x="0 : 526.18109 : 1"
       inkscape:vp_y="0 : 1000 : 0"
       inkscape:vp_z="744.09448 : 526.18109 : 1"
       inkscape:persp3d-origin="372.04724 : 350.78739 : 1"
       id="perspective2404" />
    <inkscape:perspective
       id="perspective2469"
       inkscape:persp3d-origin="372.04724 : 350.78739 : 1"
       inkscape:vp_z="744.09448 : 526.18109 : 1"
       inkscape:vp_y="0 : 1000 : 0"
       inkscape:vp_x="0 : 526.18109 : 1"
       sodipodi:type="inkscape:persp3d" />
    <inkscape:perspective
       id="perspective2529"
       inkscape:persp3d-origin="372.04724 : 350.78739 : 1"
       inkscape:vp_z="744.09448 : 526.18109 : 1"
       inkscape:vp_y="0 : 1000 : 0"
       inkscape:vp_x="0 : 526.18109 : 1"
       sodipodi:type="inkscape:persp3d" />
    <inkscape:perspective
       id="perspective2596"
       inkscape:persp3d-origin="372.04724 : 350.78739 : 1"
       inkscape:vp_z="744.09448 : 526.18109 : 1"
       inkscape:vp_y="0 : 1000 : 0"
       inkscape:vp_x="0 : 526.18109 : 1"
       sodipodi:type="inkscape:persp3d" />
    <inkscape:perspective
       id="perspective2663"
       inkscape:persp3d-origin="372.04724 : 350.78739 : 1"
       inkscape:vp_z="744.09448 : 526.18109 : 1"
       inkscape:vp_y="0 : 1000 : 0"
       inkscape:vp_x="0 : 526.18109 : 1"
       sodipodi:type="inkscape:persp3d" />
    <inkscape:perspective
       id="perspective2538"
       inkscape:persp3d-origin="372.04724 : 350.78739 : 1"
       inkscape:vp_z="744.09448 : 526.18109 : 1"
       inkscape:vp_y="0 : 1000 : 0"
       inkscape:vp_x="0 : 526.18109 : 1"
       sodipodi:type="inkscape:persp3d" />
    <inkscape:perspective
       id="perspective5982"
       inkscape:persp3d-origin="372.04724 : 350.78739 : 1"
       inkscape:vp_z="744.09448 : 526.18109 : 1"
       inkscape:vp_y="0 : 1000 : 0"
       inkscape:vp_x="0 : 526.18109 : 1"
       sodipodi:type="inkscape:persp3d" />
    <inkscape:perspective
       id="perspective6080"
       inkscape:persp3d-origin="372.04724 : 350.78739 : 1"
       inkscape:vp_z="744.09448 : 526.18109 : 1"
       inkscape:vp_y="0 : 1000 : 0"
       inkscape:vp_x="0 : 526.18109 : 1"
       sodipodi:type="inkscape:persp3d" />
    <inkscape:perspective
       id="perspective6163"
       inkscape:persp3d-origin="372.04724 : 350.78739 : 1"
       inkscape:vp_z="744.09448 : 526.18109 : 1"
       inkscape:vp_y="0 : 1000 : 0"
       inkscape:vp_x="0 : 526.18109 : 1"
       sodipodi:type="inkscape:persp3d" />
  </defs>
  <sodipodi:namedview
     id="base"
     pagecolor="#ffffff"
     bordercolor="#666666"
     borderopacity="1.0"
     gridtolerance="10000"
     guidetolerance="10"
     objecttolerance="10"
     inkscape:pageopacity="0.0"
     inkscape:pageshadow="2"
     inkscape:zoom="0.70710678"
     inkscape:cx="651.14003"
     inkscape:cy="554.7539"
     inkscape:document-units="px"
     inkscape:current-layer="layer1"
     showgrid="false"
     inkscape:window-width="1370"
     inkscape:window-height="733"
     inkscape:window-x="29"
     inkscape:window-y="33"
     showguides="false" />
  <metadata
     id="metadata2401">
    <rdf:RDF>
      <cc:Work
         rdf:about="">
        <dc:format>image/svg+xml</dc:format>
        <dc:type
           rdf:resource="http://purl.org/dc/dcmitype/StillImage" />
      </cc:Work>
    </rdf:RDF>
  </metadata>
  <g
     inkscape:label="ground"
     inkscape:groupmode="layer"
     id="layer1">
    <path
       style="fill:none;fill-rule:evenodd;stroke:#008600;stroke-width:3;stroke-linecap:butt;stroke-linejoin:miter;stroke-miterlimit:4;stroke-dasharray:none;stroke-opacity:1"
       d="M -122.85714,124 L 32.857142,125.42857 L 30.023412,520.2998 L 58.665089,494.54357 L 126.44975,438.19805 L 206.16684,382.64804 L 270.60579,359.27829 L 315.63304,360.00707 L 393.63682,359.71634 L 490.42884,359.45241 L 591.82079,360.26159 L 675.43921,359.53409 L 779.64622,358.22254 L 872.03873,358.7769 L 936.86647,372.20505 L 995.32859,397.49554 L 1078.5178,428.15436 L 1166.4306,457.1533 L 1246.9114,481.49715 L 1336.1402,498.10864 L 1410.5433,512.31704 L 1461.5041,522.22989 L 1480.4059,525.95472 L 1565.7143,530.85714 L 1647.2651,499.41016 L 1725.4103,462.77729 L 1806.3503,425.61291 L 1896.2857,392.57143 L 2000.5893,362.98214 L 2114.7143,335 L 2229.9821,311.51786 L 2337.7143,295.42857 L 2443.486,288.24695 L 2549.2959,288.18235 L 2641.1007,293.16942 L 2704.8572,301.14286 L 2754.5963,308.1738 L 2808.7055,313.82815 L 2859.6763,321.28271 L 2900,333.71429 L 3006.5152,391.78092 L 3055.0371,432.74998 L 3105.5141,471.10297 L 3165.7143,493.71428 L 3226.7915,502.2517 L 3286.4242,506.2482 L 3336.6583,503.04145 L 3380.0085,491.72491 L 3552.4601,423.3051 L 3723.2973,352.57786 L 3892.8571,317.71428 L 4104.4465,344.64588 L 4371.0598,407.9773 L 4588.7457,472.31292 L 4677.2299,464.15646 L 4780.0435,444.36395 L 4853.7244,432.95489 L 4918.3425,415.64268 L 4999.3301,392.41963 L 5090.596,366.35439 L 5182.252,340.40988 L 5265.9697,318.03185 L 5343.3237,302.25538 L 5426.1095,296.07077 L 5506.0285,304.43198 L 5607.9586,326.9518 L 5726.3845,358.90272 L 5848.1253,395.59079 L 5960.3549,432.32055 L 6059.9004,464.3542 L 6147.4218,486.93717 L 6233.7999,495.27007 L 6302.6072,490.43616 L 6375.2429,478.16886 L 6452.2525,460.93797 L 6526.5162,441.24691 L 6591.2686,421.59753 L 6649.3978,404.44938 L 6707.6248,392.24521 L 6782.8912,387.383 L 6856.5355,391.28455 L 6941.9281,401.89146 L 7036.9841,416.67533 L 7131.9527,433.14132 L 7217.4171,449.435 L 7293.6416,462.80372 L 7364.7476,469.72909 L 7445.1197,465.364 L 7506.0827,451.60122 L 7557.5201,429.76319 L 7604.3046,402.86684 L 7643.6115,374.92563 L 7673.3158,348.63632 L 7700.3291,327.16058 L 7734.9582,314.65096 L 7796.8999,316.49651 L 7878.31,323.88227 L 7993.0672,330.41582 L 8131.8301,337.0054 L 8278.2146,343.63188 L 8415.8887,349.40427 L 8537.958,355.84594 L 8641.4232,366.01837 L 8733.4141,386.07429 L 8812.5278,406.61623 L 8913.1609,427.54331 L 9029.6703,448.66672 L 9148.8158,467.47917 L 9258.5328,483.01869 L 9354.3546,495.06002 L 9434.4205,502.78895 L 9504.5359,505.3577 L 9549.4431,493.42854 L 9586.0712,462.16315 L 9618.1987,417.68337 L 9643.8548,366.13618 L 9665,312.44113 L 9685.9478,263.12109 L 9709.6945,226.72178 L 9739.2361,211.78891 L 9988.5714,201.71429"
       id="path2410"
       inkscape:label=""
       sodipodi:nodetypes="ccccccccccccccccccccccccccccccccccccccccccccccccccccccccccccccccccccccccccccccccccccccccccccccccccccccccccccccccccccccccz" />
  </g>
  <g
     inkscape:groupmode="layer"
     id="layer2"
     inkscape:label="zones">
    <rect
       inkscape:label="bounds"
       y="306.02182"
       x="331.16211"
       height="143.58534"
       width="547.14087"
       id="rect2384"
       style="opacity:0.99502486;fill:none;fill-opacity:1;fill-rule:evenodd;stroke:#000000;stroke-width:1.4378475;stroke-linecap:butt;stroke-linejoin:miter;marker:none;marker-start:none;marker-mid:none;marker-end:none;stroke-miterlimit:1;stroke-dasharray:4.31354266, 1.43784754;stroke-dashoffset:0;stroke-opacity:1;visibility:visible;display:inline;overflow:visible;enable-background:accumulate" />
  </g>
  <g
     inkscape:groupmode="layer"
     id="layer4"
     inkscape:label="proto">
    <image
       y="-148.57672"
       x="883.44049"
       id="image2540"
       height="123"
       width="165"
       sodipodi:absref="/Users/crosby/svn/crosby/gosu/truck/art/truck_placeholder.png"
       xlink:href="/Users/crosby/svn/crosby/gosu/truck/art/truck_placeholder.png" />
  </g>
  <g
     inkscape:groupmode="layer"
     id="layer5"
     inkscape:label="fruits">
    <g
       id="g5992"
       game:class="fruit"
       game:handle="apple"
       transform="translate(31,36)">
      <image
         xlink:href="apple_small.png"
         sodipodi:absref="/Users/crosby/svn/crosby/gosu/truck/media/apple_small.png"
         width="25"
         height="25"
         id="image5984"
         x="-11.435029"
         y="-9.3137083" />
      <path
         style="fill:none;fill-rule:evenodd;stroke:#000000;stroke-width:1px;stroke-linecap:butt;stroke-linejoin:miter;stroke-opacity:1"
         d="M 6.8059075,11.893142 L 11.048547,4.4685209 L 6.9826775,-3.0444891 L -2.4748825,-2.8677121 L -6.4523525,4.7336859 L -2.2097025,11.716365"
         id="path6007"
         sodipodi:nodetypes="cccccc" />
    </g>
    <g
       id="g6088"
       game:class="fruit"
       game:handle="banana"
       transform="translate(0,40)">
      <image
         xlink:href="banana_small.png"
         sodipodi:absref="/Users/crosby/svn/crosby/gosu/truck/media/banana_small.png"
         width="35"
         height="26"
         id="image6082"
         x="-13.792893"
         y="-12.585787" />
      <path
         id="path6086"
         d="M -11.667262,8.9208698 L 19.445436,8.213763 L -9.0156118,-8.7567998 L -11.667262,8.9208698 z"
         style="fill:none;fill-rule:evenodd;stroke:#000000;stroke-width:1px;stroke-linecap:butt;stroke-linejoin:miter;stroke-opacity:1"
         sodipodi:nodetypes="cccc" />
    </g>
    <g
       id="g6171"
       game:class="fruit"
       game:handle="strawberry">
      <image
         xlink:href="strawberry_small.png"
         sodipodi:absref="/Users/crosby/svn/crosby/gosu/truck/media/strawberry_small.png"
         width="20"
         height="23"
         id="image6165"
         x="-6.9947958"
         y="-12.301848" />
      <path
         sodipodi:nodetypes="ccccccc"
         id="path6169"
         d="M -3.8890873,7.5066558 L 0.88388348,9.0976461 L 7.0710675,3.7943452 L 8.1317278,-3.365111 L -0.17677667,-6.9890332 L -4.9497475,-1.8625091 L -3.8890873,7.5066558 z"
         style="fill:none;fill-rule:evenodd;stroke:#000000;stroke-width:1px;stroke-linecap:butt;stroke-linejoin:miter;stroke-opacity:1" />
    </g>
  </g>
  <g
     inkscape:groupmode="layer"
     id="layer3"
     inkscape:label="crates"
     style="display:inline">
    <g
       id="g2578"
       game:class="crate"
       game:handle="apple"
       transform="translate(0,-60)">
      <image
         xlink:href="wood_box.png"
         sodipodi:absref="/Users/crosby/svn/crosby/gosu/truck/media/wood_box.png"
         width="150"
         height="150"
         id="image2479"
         x="340.54932"
         y="11.697517"
         game:class="box" />
      <image
         xlink:href="apple_100.png"
         sodipodi:absref="/Users/crosby/svn/crosby/gosu/truck/media/apple_100.png"
         width="100"
         height="100"
         id="image2531"
         x="364.68231"
         y="36.697517"
         game:class="icon" />
    </g>
    <g
       id="g2584"
       game:class="crate"
       game:handle="banana"
       transform="translate(0,-60)">
      <image
         xlink:href="wood_box.png"
         sodipodi:absref="/Users/crosby/svn/crosby/gosu/truck/media/wood_box.png"
         width="150"
         height="150"
         id="image2471"
         x="520.54932"
         y="11.697517"
         game:class="box" />
      <image
         xlink:href="bananas_100.png"
         sodipodi:absref="/Users/crosby/svn/crosby/gosu/truck/media/bananas_100.png"
         width="100"
         height="100"
         id="image2598"
         x="545.54932"
         y="35.295448"
         game:class="icon" />
    </g>
    <g
       id="g2590"
       game:class="crate"
       game:handle="strawberry"
       transform="translate(0,-60)">
      <image
         y="11.53457"
         x="700.71228"
         id="image2477"
         height="150"
         width="150"
         sodipodi:absref="/Users/crosby/svn/crosby/gosu/truck/media/wood_box.png"
         xlink:href="wood_box.png"
         game:class="box" />
      <image
         xlink:href="strawberry_100.png"
         sodipodi:absref="/Users/crosby/svn/crosby/gosu/truck/media/strawberry_100.png"
         width="100"
         height="100"
         id="image2665"
         x="726.57928"
         y="35.1325"
         game:class="icon" />
    </g>
  </g>
</svg>
